<?xml version="1.0" standalone="no"?><!DOCTYPE svg PUBLIC "-//W3C//DTD SVG 1.1//EN" "http://www.w3.org/Graphics/SVG/1.1/DTD/svg11.dtd"><svg t="1586229087354" class="icon" viewBox="0 0 1024 1024" version="1.1" xmlns="http://www.w3.org/2000/svg" p-id="14792" xmlns:xlink="http://www.w3.org/1999/xlink" width="200" height="200"><defs><style type="text/css"></style></defs><path d="M783.21664 578.58048c-0.12288-0.22528-0.32768-0.36864-0.45056-0.57344-0.55296-1.00352-1.35168-1.78176-2.06848-2.6624-0.90112-1.1264-1.76128-2.27328-2.8672-3.15392-0.79872-0.65536-1.72032-1.06496-2.62144-1.59744a19.49696 19.49696 0 0 0-4.23936-1.98656c-0.38912-0.12288-0.67584-0.4096-1.06496-0.512-0.7168-0.18432-1.39264 0-2.08896-0.1024a18.82112 18.82112 0 0 0-8.25344 0.512c-0.55296 0.16384-1.1264 0.08192-1.67936 0.3072l-115.65056 43.17184a20.45952 20.45952 0 1 0 14.336 38.35904l75.53024-28.18048c-37.76512 88.02304-123.22816 146.61632-219.89376 146.61632-109.32224 0-204.92288-75.48928-232.448-183.58272a20.48 20.48 0 1 0-39.71072 10.11712c32.1536 126.23872 144.05632 214.4256 272.13824 214.4256 112.57856 0 212.15232-67.70688 256.67584-169.55392l36.72064 71.35232a20.43904 20.43904 0 0 0 27.58656 8.82688 20.48 20.48 0 0 0 8.84736-27.58656l-58.79808-114.19648zM512.16384 277.21728c105.75872 0 197.91872 69.34528 229.35552 172.56448a20.48 20.48 0 0 0 39.17824-11.91936c-36.72064-120.58624-144.65024-201.60512-268.53376-201.60512-107.90912 0-203.55072 61.39904-250.75712 156.83584l-33.52576-70.41024a20.48 20.48 0 1 0-36.98688 17.59232l53.69856 112.72192c0.08192 0.18432 0.22528 0.3072 0.3072 0.47104 0.24576 0.47104 0.59392 0.86016 0.88064 1.3312a20.0704 20.0704 0 0 0 5.07904 5.632c1.78176 1.3312 3.70688 2.43712 5.81632 3.13344 0.16384 0.06144 0.28672 0.2048 0.47104 0.24576l0.14336 0.02048a20.35712 20.35712 0 0 0 5.79584 0.86016h0.06144a20.31616 20.31616 0 0 0 5.38624-0.73728l116.69504-32.19456a20.45952 20.45952 0 1 0-10.89536-39.46496l-77.4144 21.36064c39.97696-82.944 122.32704-136.43776 215.2448-136.43776z" fill="#1afa29" p-id="14793"></path></svg>